# xmcd
#
# Track frame offsets:
#	150
#	13502
#	29400
#	45540
#	57507
#	71387
#	85435
#	99447
#	117395
#	132075
#	146072
#	162095
#	181500
#	195960
#	211005
#	222112
#	237532
#	249450
#	259830
#	275747
#
# Disc length: 3857 seconds
#
# Revision: 0
# Processed by: cddbd v1.5.2PL0 Copyright (c) Steve Scherf et al.
# Submitted via: EasyCDDAExtractor 10.5.1.1
#
DISCID=1a0f0f14
DTITLE=Various Artist - Illan varjoon himmeään - Tanssiorkesterien parhaat CD
DTITLE=1
DYEAR=1900
DGENRE=Dance hall
TTITLE0=Kääriäinen,  Jorma and Agents - Illan varjoon himmeään
TTITLE1=Yölintu - Syntymäpäivä
TTITLE2=Finlanders - Hilk´jaiset sillat
TTITLE3=Solistiyhtye Suomi - Yölintu
TTITLE4=Hoikka,  Lasse and Souvarit - Lumiperhonen
TTITLE5=A. Aallon Rytmiorkesteri - Exodus
TTITLE6=Charlies - Käyn uudelleen eiliseen  ( Les bicylettes de belsize )
TTITLE7=Hoikka,  Lasse and Souvarit - Älä pyydä mua jäämään
TTITLE8=Solistiyhtye Suomi - Muistoja Karpaateilta
TTITLE9=Korsuorkesteri - Uska dara
TTITLE10=Yölintu - Pienen pojan haaveet
TTITLE11=Finlanders - Anna jatkua yön
TTITLE12=Korsuorkesteri - Liian vähön aikaa
TTITLE13=Kääriäinen,  Jorma and Agents - Luonasi
TTITLE14=A. Aallon Rytmiorkesteri - Itke siis, siitä viis  ( Don't Think Twice
TTITLE14=, It's All Right )
TTITLE15=Finlanders - Jos saisin sinut minua vasten  ( If I Said You Have A Be
TTITLE15=autiful Body Would You Hold )
TTITLE16=Charlies - Keinu kanssani  ( Sway )
TTITLE17=Korsuorkesteri - Nuori Lotta
TTITLE18=Hoikka,  Lasse and Souvarit - Joutsenen piilopaikka
TTITLE19=Kääriäinen,  Jorma and Agents - Valot
EXTD=
EXTT0=
EXTT1=
EXTT2=
EXTT3=
EXTT4=
EXTT5=
EXTT6=
EXTT7=
EXTT8=
EXTT9=
EXTT10=
EXTT11=
EXTT12=
EXTT13=
EXTT14=
EXTT15=
EXTT16=
EXTT17=
EXTT18=
EXTT19=
PLAYORDER=
